<svg width="1920" height="1080" viewBox="0 0 1920 1080" fill="none" xmlns="http://www.w3.org/2000/svg">
<path d="M75.323 1014.92C75.323 1018.73 75.733 1019.29 79.016 1019.22H80.521V1024.59H60V1019.22H62.189C65.541 1019.29 65.951 1018.73 65.951 1014.92V987.192C65.951 983.381 65.541 982.817 62.189 982.887H60V977.525H80.863V982.887H79.016C75.733 982.817 75.323 983.381 75.323 987.192V1000.46L88.662 985.569C89.346 984.793 89.687 984.228 89.687 983.805C89.687 983.169 88.935 982.887 87.225 982.887H84.557V977.525H105.215V982.887H103.847C100.359 982.957 97.964 984.369 93.381 989.096L87.43 995.375L99.879 1015.7C102 1018.8 102.615 1019.22 105.762 1019.22H107.815V1024.58H85.036V1019.22H88.388C90.441 1019.22 90.988 1018.94 90.988 1018.02C90.988 1017.53 90.646 1016.68 89.963 1015.55L81.549 1001.72L75.324 1008.43L75.323 1014.92Z" fill="white"/>
<path d="M60 936.839H62.188C65.541 936.909 65.951 936.345 65.951 932.535V904.877C65.951 900.996 65.541 900.432 62.188 900.502H60V895.14H82.026V900.502H79.29C75.938 900.432 75.528 900.996 75.528 904.877V915.248H92.287V904.877C92.287 900.996 91.877 900.432 88.525 900.502H85.857V895.14H107.815V900.502H105.626C102.274 900.432 101.864 900.996 101.864 904.877V932.535C101.864 936.345 102.274 936.909 105.626 936.839H107.815V942.201H85.857V936.839H88.525C91.877 936.909 92.287 936.345 92.287 932.535V920.892H75.528V932.535C75.528 936.345 75.938 936.909 79.29 936.839H82.026V942.201H60V936.839Z" fill="white"/>
<path d="M60 856.491H62.12C65.404 856.561 65.814 855.997 65.814 852.187V824.529C65.814 820.648 65.404 820.084 62.12 820.154H60V814.792H83.873C93.929 814.792 98.854 818.603 98.854 826.363C98.854 832.219 96.801 834.83 90.713 836.947C94.133 837.934 95.638 838.711 97.212 840.263C99.332 842.309 100.427 845.272 100.427 849.153C100.427 853.174 99.196 856.421 96.938 858.466C94.133 860.936 90.372 861.853 82.71 861.853H60V856.491ZM81.206 834.83C84.899 834.83 86.473 834.336 87.772 832.642C88.798 831.372 89.277 829.679 89.277 827.492C89.277 825.094 88.73 823.118 87.635 821.918C86.54 820.719 84.899 820.225 81.821 820.225H75.391V834.83H81.206ZM82.095 856.562C85.447 856.562 87.431 855.998 88.594 854.657C89.824 853.387 90.509 850.989 90.509 848.307C90.509 845.625 89.824 843.509 88.526 842.168C87.226 840.687 85.379 840.192 81.48 840.192H75.392V856.561H82.095V856.562Z" fill="white"/>
<path d="M60.137 762.102H64.857C65.883 767.818 66.909 770.357 69.372 772.827C71.835 775.367 74.571 776.496 78.401 776.496C83.463 776.496 86.268 774.308 86.268 770.287C86.268 766.83 84.215 764.502 80.111 763.443L73.476 761.679C63.898 759.139 60 755.046 60 747.567C60 738.888 65.951 733.032 74.707 733.032C79.358 733.032 81.89 734.02 86.746 737.901L88.935 734.443H92.56V752.294H87.909C87.088 747.497 85.651 744.251 83.463 741.993C81.547 740.017 78.469 738.747 75.527 738.747C70.944 738.747 68.139 741.005 68.139 744.886C68.139 747.99 69.917 750.036 73.338 750.954L81.614 753.142C85.035 753.988 88.455 755.681 90.508 757.446C93.175 759.774 94.749 763.655 94.749 767.888C94.749 776.637 88.318 782.846 79.357 782.846C74.569 782.846 71.148 781.365 65.745 777.13L64.377 781.505H60.136L60.137 762.102Z" fill="white"/>
<path d="M60 705.399H62.189C65.541 705.469 65.951 704.905 65.951 701.025V673.437C65.951 669.556 65.541 668.992 62.189 669.062H60V663.7H98.102V683.244H93.45C93.245 671.532 91.261 668.922 82.642 669.062H75.528V683.527H76.485C81.616 683.385 82.094 682.751 82.642 674.989H87.293V698.484H82.642C82.163 690.088 81.342 688.748 76.553 688.888H75.528V701.025C75.528 704.905 75.938 705.469 79.29 705.399H82.026V710.761H60V705.399Z" fill="white"/>
</svg>
