<svg width="1920" height="1080" viewBox="0 0 1920 1080" fill="none" xmlns="http://www.w3.org/2000/svg">
<path d="M653.707 1002.18V957.18C653.707 957.18 599.157 955.719 546.87 924.797C495.237 894.262 476.917 842.164 507.442 790.797C540.14 735.773 599.017 734.964 656.251 756.18C706.235 774.709 742.3 795.263 742.3 795.263L773.263 690.647L737.577 671.161C567.855 578.483 352.91 578.483 183.188 671.161L147.502 690.647L178.465 795.263C178.465 795.263 214.53 774.709 264.514 756.18C321.748 734.963 380.625 735.773 413.323 790.797C443.848 842.164 425.528 894.262 373.895 924.797C321.608 955.719 267.058 957.18 267.058 957.18V1002.18H653.707Z" fill="#040000"/>
<path d="M1842.81 324.76V373.428L1770.42 402.629L1842.81 431.83V480.498H1734.22V519.433H1842.81V568.102L1770.42 597.302L1842.81 626.504V675.172H1492.91V626.504L1565.3 597.302L1492.91 568.102V519.433H1601.5V480.498H1492.91V431.83L1565.3 402.629L1492.91 373.428V324.76H1842.81Z" fill="#040000"/>
<path d="M434.873 196.11C338.99 196.11 261.262 273.839 261.262 369.721C261.262 465.603 338.991 543.333 434.873 543.333C530.755 543.333 608.485 465.604 608.485 369.721C608.485 273.838 530.756 196.11 434.873 196.11ZM434.873 417.742C408.352 417.742 386.853 396.243 386.853 369.722C386.853 343.201 408.352 321.702 434.873 321.702C461.394 321.702 482.893 343.201 482.893 369.722C482.893 396.243 461.393 417.742 434.873 417.742Z" fill="#040000"/>
<path d="M866.541 824.467L983.332 744.674L962.722 579.177L1170.94 632.372L1337.14 458.01L1282.18 685.568L1395.54 747.629L1192.87 777.182L1072.64 868.796L1065.77 762.405L866.541 824.467Z" fill="#040000"/>
</svg>
