<svg width="1920" height="1080" viewBox="0 0 1920 1080" fill="none" xmlns="http://www.w3.org/2000/svg">
<path d="M192.689 944.704C192.689 944.704 192.689 917.428 264.987 903.487C337.285 889.546 330.055 885.909 330.055 885.909" stroke="#444654" stroke-width="18" stroke-miterlimit="10"/>
<path d="M339.771 881.857L303.497 936.268" stroke="#444654" stroke-width="44" stroke-miterlimit="10"/>
<path d="M353.727 884.744C353.727 884.744 361.656 860.988 358.952 857.724C356.248 854.459 358.509 858.007 353.384 851.921C348.259 845.835 350.354 843.253 349.95 841.64C349.546 840.027 350.833 834.22 350.833 834.22L349.777 821.801C349.777 821.801 344.417 827.087 343.73 825.031C343.043 822.975 350.451 803.292 349.925 800.51C349.399 797.728 350.686 791.921 350.686 791.921" stroke="#444654" stroke-width="18" stroke-miterlimit="10"/>
<path d="M435.432 736.518L411.275 742.761L331.094 785.409C331.094 785.409 312.779 801.63 339.35 804.876C365.921 808.122 373.642 808.684 373.642 808.684L365.1 780.837L330.412 747.399" stroke="#444654" stroke-width="17" stroke-miterlimit="10"/>
<path d="M347.706 884.471L373.153 950.148L437.244 994.975L439.129 1019.99" stroke="#444654" stroke-width="12" stroke-miterlimit="10"/>
<path d="M368.505 863.99L386.132 876.275" stroke="#444654" stroke-width="22" stroke-miterlimit="10"/>
<path d="M400.972 785.431L401.857 868.623L423.098 871.278L417.787 882.784L420.443 897.829L475.314 906.679L507.175 936.77" stroke="#444654" stroke-width="29" stroke-miterlimit="10" stroke-linecap="round"/>
<path d="M303.07 550.316L343.167 621.918C343.167 621.918 383.264 632.42 386.128 639.102C388.992 645.785 399.494 646.74 388.992 662.015C378.49 677.29 375.626 683.973 375.626 683.973" stroke="#444654" stroke-width="22" stroke-miterlimit="10"/>
<path d="M216.809 686.675C227.647 664.595 221.062 645.716 232.331 659.925C243.6 674.134 259.43 657.545 259.43 657.545L287.951 675.166" stroke="#444654" stroke-width="18" stroke-miterlimit="10" stroke-linecap="round" stroke-linejoin="round"/>
<path d="M454.84 599.132C454.84 599.132 471.855 695.551 406.064 705.76C340.273 715.969 340.273 755.671 340.273 755.671" stroke="#444654" stroke-width="7" stroke-miterlimit="10"/>
<path d="M439.744 718.134L503.555 723.831C503.555 723.831 510.392 714.715 513.81 714.715C517.228 714.715 551.413 699.902 558.25 705.599C565.087 711.296 570.784 704.46 570.784 704.46" stroke="#444654" stroke-width="2" stroke-miterlimit="10"/>
<path d="M642.956 784.294C642.956 784.294 653.62 758.701 664.284 771.497C674.948 784.294 685.612 771.497 685.612 771.497L694.143 773.63L710.139 774.696" stroke="#444654" stroke-width="6" stroke-miterlimit="10"/>
<path d="M205.201 658.395L194.742 652.672C194.742 652.672 201.499 666.154 177.554 663.816C153.609 661.478 155.291 656.418 155.291 656.418L94.934 662.207" stroke="#444654" stroke-width="8" stroke-miterlimit="10"/>
<path d="M388.842 538.637L336.489 617.503" stroke="#444654" stroke-width="8" stroke-miterlimit="10"/>
<path d="M486.64 918.975L419.444 933.223L393.6 938.703C393.6 938.703 399.743 896.351 404.317 897.541L411.515 982.435L367.972 980.865" stroke="#444654" stroke-width="12" stroke-miterlimit="10" stroke-linecap="round"/>
<path d="M611.851 729.354H641.393L708.919 716.693L721.58 699.812" stroke="#444654" stroke-width="2" stroke-miterlimit="10"/>
</svg>
