<svg width="1920" height="1080" viewBox="0 0 1920 1080" fill="none" xmlns="http://www.w3.org/2000/svg">
<path d="M1173.89 473.51C1183.58 453.778 1177.69 436.907 1187.76 449.605C1197.83 462.303 1211.98 447.478 1211.98 447.478L1237.47 463.225" stroke="#46544F" stroke-width="18" stroke-miterlimit="10" stroke-linecap="round" stroke-linejoin="round"/>
<path d="M1297.8 535.058C1297.8 535.058 1320.3 544.42 1306.99 608.859C1293.68 673.298 1299.16 668.581 1299.16 668.581" stroke="#46544F" stroke-width="18" stroke-miterlimit="10"/>
<path d="M1236.12 448.789L1278.24 408.272" stroke="#46544F" stroke-width="44" stroke-miterlimit="10"/>
<path d="M1270.47 607.481C1270.47 607.481 1277.56 586.252 1275.14 583.334C1272.73 580.417 1274.75 583.587 1270.17 578.148C1265.59 572.709 1267.46 570.402 1267.1 568.961C1266.74 567.52 1267.89 562.33 1267.89 562.33L1266.94 551.232C1266.94 551.232 1262.15 555.956 1261.54 554.118C1260.93 552.281 1267.55 534.691 1267.08 532.205C1266.61 529.719 1267.76 524.529 1267.76 524.529" stroke="#46544F" stroke-width="18" stroke-miterlimit="10"/>
<path d="M1343.49 475.018L1321.9 480.597L1250.25 518.709C1250.25 518.709 1233.88 533.205 1257.63 536.106C1281.37 539.007 1288.27 539.509 1288.27 539.509L1280.64 514.624L1249.64 484.742" stroke="#46544F" stroke-width="17" stroke-miterlimit="10"/>
<path d="M1411.82 424.349L1368.26 395.499L1310.7 395.719L1298.76 381.4" stroke="#46544F" stroke-width="12" stroke-miterlimit="10"/>
<path d="M1262.99 644.879L1245 651.593" stroke="#46544F" stroke-width="22" stroke-miterlimit="10"/>
<path d="M1392.45 703.869L1383.61 630.047L1364.48 629.744L1368.09 619.009L1364.27 605.9L1314.67 603.349L1283.45 579.701" stroke="#46544F" stroke-width="29" stroke-miterlimit="10" stroke-linecap="round"/>
<path d="M1245.3 352.336L1193.14 300.78C1193.14 300.78 1156.11 301.689 1152 296.66C1147.88 291.631 1138.63 293.411 1143.87 277.695C1149.1 261.979 1149.91 255.531 1149.91 255.531" stroke="#46544F" stroke-width="22" stroke-miterlimit="10"/>
<path d="M1155.04 716.76C1155.04 716.76 1188.01 635.716 1242.65 659.279C1297.28 682.841 1316.16 652.802 1316.16 652.802" stroke="#46544F" stroke-width="7" stroke-miterlimit="10"/>
<path d="M1372.01 471.043L1429.04 476.135C1429.04 476.135 1435.14 467.989 1438.2 467.989C1441.25 467.989 1471.8 454.751 1477.91 459.843C1484.02 464.935 1489.11 458.825 1489.11 458.825" stroke="#46544F" stroke-width="2" stroke-miterlimit="10"/>
<path d="M1213.84 698.506C1213.84 698.506 1215.51 673.785 1228.21 681.552C1240.91 689.318 1246.26 675.427 1246.26 675.427L1254.09 674.782L1267.93 671.091" stroke="#46544F" stroke-width="6" stroke-miterlimit="10"/>
<path d="M1197.29 428.753L1187.94 423.639C1187.94 423.639 1193.98 435.688 1172.58 433.598C1151.18 431.508 1152.68 426.987 1152.68 426.987L1098.74 432.161" stroke="#46544F" stroke-width="8" stroke-miterlimit="10"/>
<path d="M1210.27 235.995L1163.48 306.474" stroke="#46544F" stroke-width="8" stroke-miterlimit="10"/>
<path d="M1311.77 376.167L1273.8 372.395L1259.2 370.944C1259.2 370.944 1271.64 348.426 1273.76 349.886L1258.93 398.421L1236.69 389.96" stroke="#46544F" stroke-width="12" stroke-miterlimit="10" stroke-linecap="round"/>
<path d="M1125.01 510.696L1142.45 490.88L1173.84 438.111L1169.99 419.65" stroke="#46544F" stroke-width="2" stroke-miterlimit="10"/>
</svg>
