<svg width="1920" height="1080" viewBox="0 0 1920 1080" fill="none" xmlns="http://www.w3.org/2000/svg">
<g filter="url(#filter0_dd_15_69)">
<path d="M421.495 621.364C432.77 621.364 441.91 612.224 441.91 600.949C441.91 589.674 432.77 580.534 421.495 580.534C410.22 580.534 401.08 589.674 401.08 600.949C401.08 612.224 410.22 621.364 421.495 621.364Z" stroke="#852228" stroke-width="20" stroke-miterlimit="10"/>
<path d="M421.495 621.364C432.77 621.364 441.91 612.224 441.91 600.949C441.91 589.674 432.77 580.534 421.495 580.534C410.22 580.534 401.08 589.674 401.08 600.949C401.08 612.224 410.22 621.364 421.495 621.364Z" stroke="#A8CA4C" stroke-width="11" stroke-miterlimit="10"/>
<path d="M421.495 621.364C432.77 621.364 441.91 612.224 441.91 600.949C441.91 589.674 432.77 580.534 421.495 580.534C410.22 580.534 401.08 589.674 401.08 600.949C401.08 612.224 410.22 621.364 421.495 621.364Z" stroke="#2846AE" stroke-width="6" stroke-miterlimit="10"/>
<path d="M558.682 769.291C569.957 769.291 579.097 760.151 579.097 748.876C579.097 737.601 569.957 728.461 558.682 728.461C547.407 728.461 538.267 737.601 538.267 748.876C538.267 760.151 547.407 769.291 558.682 769.291Z" stroke="#852228" stroke-width="20" stroke-miterlimit="10"/>
<path d="M558.682 769.291C569.957 769.291 579.097 760.151 579.097 748.876C579.097 737.601 569.957 728.461 558.682 728.461C547.407 728.461 538.267 737.601 538.267 748.876C538.267 760.151 547.407 769.291 558.682 769.291Z" stroke="#A8CA4C" stroke-width="11" stroke-miterlimit="10"/>
<path d="M558.682 769.291C569.957 769.291 579.097 760.151 579.097 748.876C579.097 737.601 569.957 728.461 558.682 728.461C547.407 728.461 538.267 737.601 538.267 748.876C538.267 760.151 547.407 769.291 558.682 769.291Z" stroke="#2846AE" stroke-width="6" stroke-miterlimit="10"/>
<path d="M600.439 754.14C611.714 754.14 620.854 745 620.854 733.725C620.854 722.45 611.714 713.31 600.439 713.31C589.164 713.31 580.024 722.45 580.024 733.725C580.024 745 589.164 754.14 600.439 754.14Z" stroke="#852228" stroke-width="20" stroke-miterlimit="10"/>
<path d="M600.439 754.14C611.714 754.14 620.854 745 620.854 733.725C620.854 722.45 611.714 713.31 600.439 713.31C589.164 713.31 580.024 722.45 580.024 733.725C580.024 745 589.164 754.14 600.439 754.14Z" stroke="#A8CA4C" stroke-width="11" stroke-miterlimit="10"/>
<path d="M600.439 754.14C611.714 754.14 620.854 745 620.854 733.725C620.854 722.45 611.714 713.31 600.439 713.31C589.164 713.31 580.024 722.45 580.024 733.725C580.024 745 589.164 754.14 600.439 754.14Z" stroke="#2846AE" stroke-width="6" stroke-miterlimit="10"/>
<path d="M534.238 680.717C545.513 680.717 554.653 671.577 554.653 660.302C554.653 649.027 545.513 639.887 534.238 639.887C522.963 639.887 513.823 649.027 513.823 660.302C513.823 671.577 522.963 680.717 534.238 680.717Z" stroke="#852228" stroke-width="20" stroke-miterlimit="10"/>
<path d="M534.238 680.717C545.513 680.717 554.653 671.577 554.653 660.302C554.653 649.027 545.513 639.887 534.238 639.887C522.963 639.887 513.823 649.027 513.823 660.302C513.823 671.577 522.963 680.717 534.238 680.717Z" stroke="#A8CA4C" stroke-width="11" stroke-miterlimit="10"/>
<path d="M534.238 680.717C545.513 680.717 554.653 671.577 554.653 660.302C554.653 649.027 545.513 639.887 534.238 639.887C522.963 639.887 513.823 649.027 513.823 660.302C513.823 671.577 522.963 680.717 534.238 680.717Z" stroke="#2846AE" stroke-width="6" stroke-miterlimit="10"/>
<path d="M165.183 686.361C176.458 686.361 185.598 677.221 185.598 665.946C185.598 654.671 176.458 645.531 165.183 645.531C153.908 645.531 144.768 654.671 144.768 665.946C144.768 677.221 153.908 686.361 165.183 686.361Z" stroke="#852228" stroke-width="20" stroke-miterlimit="10"/>
<path d="M165.183 686.361C176.458 686.361 185.598 677.221 185.598 665.946C185.598 654.671 176.458 645.531 165.183 645.531C153.908 645.531 144.768 654.671 144.768 665.946C144.768 677.221 153.908 686.361 165.183 686.361Z" stroke="#A8CA4C" stroke-width="11" stroke-miterlimit="10"/>
<path d="M165.183 686.361C176.458 686.361 185.598 677.221 185.598 665.946C185.598 654.671 176.458 645.531 165.183 645.531C153.908 645.531 144.768 654.671 144.768 665.946C144.768 677.221 153.908 686.361 165.183 686.361Z" stroke="#2846AE" stroke-width="6" stroke-miterlimit="10"/>
<path d="M205.12 595.594C216.395 595.594 225.535 586.454 225.535 575.179C225.535 563.904 216.395 554.764 205.12 554.764C193.845 554.764 184.705 563.904 184.705 575.179C184.705 586.454 193.845 595.594 205.12 595.594Z" stroke="#852228" stroke-width="20" stroke-miterlimit="10"/>
<path d="M205.12 595.594C216.395 595.594 225.535 586.454 225.535 575.179C225.535 563.904 216.395 554.764 205.12 554.764C193.845 554.764 184.705 563.904 184.705 575.179C184.705 586.454 193.845 595.594 205.12 595.594Z" stroke="#A8CA4C" stroke-width="11" stroke-miterlimit="10"/>
<path d="M205.12 595.594C216.395 595.594 225.535 586.454 225.535 575.179C225.535 563.904 216.395 554.764 205.12 554.764C193.845 554.764 184.705 563.904 184.705 575.179C184.705 586.454 193.845 595.594 205.12 595.594Z" stroke="#2846AE" stroke-width="6" stroke-miterlimit="10"/>
<path d="M446.552 550.014C457.827 550.014 466.967 540.874 466.967 529.599C466.967 518.324 457.827 509.184 446.552 509.184C435.277 509.184 426.137 518.324 426.137 529.599C426.137 540.874 435.277 550.014 446.552 550.014Z" stroke="#852228" stroke-width="20" stroke-miterlimit="10"/>
<path d="M446.552 550.014C457.827 550.014 466.967 540.874 466.967 529.599C466.967 518.324 457.827 509.184 446.552 509.184C435.277 509.184 426.137 518.324 426.137 529.599C426.137 540.874 435.277 550.014 446.552 550.014Z" stroke="#A8CA4C" stroke-width="11" stroke-miterlimit="10"/>
<path d="M446.552 550.014C457.827 550.014 466.967 540.874 466.967 529.599C466.967 518.324 457.827 509.184 446.552 509.184C435.277 509.184 426.137 518.324 426.137 529.599C426.137 540.874 435.277 550.014 446.552 550.014Z" stroke="#2846AE" stroke-width="6" stroke-miterlimit="10"/>
<path d="M622.428 828.869C633.703 828.869 642.843 819.729 642.843 808.454C642.843 797.179 633.703 788.039 622.428 788.039C611.153 788.039 602.013 797.179 602.013 808.454C602.013 819.729 611.153 828.869 622.428 828.869Z" stroke="#852228" stroke-width="20" stroke-miterlimit="10"/>
<path d="M622.428 828.869C633.703 828.869 642.843 819.729 642.843 808.454C642.843 797.179 633.703 788.039 622.428 788.039C611.153 788.039 602.013 797.179 602.013 808.454C602.013 819.729 611.153 828.869 622.428 828.869Z" stroke="#A8CA4C" stroke-width="11" stroke-miterlimit="10"/>
<path d="M622.428 828.869C633.703 828.869 642.843 819.729 642.843 808.454C642.843 797.179 633.703 788.039 622.428 788.039C611.153 788.039 602.013 797.179 602.013 808.454C602.013 819.729 611.153 828.869 622.428 828.869Z" stroke="#2846AE" stroke-width="6" stroke-miterlimit="10"/>
<path d="M337.272 725.025C348.547 725.025 357.687 715.885 357.687 704.61C357.687 693.335 348.547 684.195 337.272 684.195C325.997 684.195 316.857 693.335 316.857 704.61C316.857 715.885 325.997 725.025 337.272 725.025Z" stroke="#852228" stroke-width="20" stroke-miterlimit="10"/>
<path d="M337.272 725.025C348.547 725.025 357.687 715.885 357.687 704.61C357.687 693.335 348.547 684.195 337.272 684.195C325.997 684.195 316.857 693.335 316.857 704.61C316.857 715.885 325.997 725.025 337.272 725.025Z" stroke="#A8CA4C" stroke-width="11" stroke-miterlimit="10"/>
<path d="M337.272 725.025C348.547 725.025 357.687 715.885 357.687 704.61C357.687 693.335 348.547 684.195 337.272 684.195C325.997 684.195 316.857 693.335 316.857 704.61C316.857 715.885 325.997 725.025 337.272 725.025Z" stroke="#2846AE" stroke-width="6" stroke-miterlimit="10"/>
<path d="M752.528 827.981C763.803 827.981 772.943 818.841 772.943 807.566C772.943 796.291 763.803 787.151 752.528 787.151C741.253 787.151 732.113 796.291 732.113 807.566C732.113 818.841 741.253 827.981 752.528 827.981Z" stroke="#852228" stroke-width="20" stroke-miterlimit="10"/>
<path d="M752.528 827.981C763.803 827.981 772.943 818.841 772.943 807.566C772.943 796.291 763.803 787.151 752.528 787.151C741.253 787.151 732.113 796.291 732.113 807.566C732.113 818.841 741.253 827.981 752.528 827.981Z" stroke="#A8CA4C" stroke-width="11" stroke-miterlimit="10"/>
<path d="M752.528 827.981C763.803 827.981 772.943 818.841 772.943 807.566C772.943 796.291 763.803 787.151 752.528 787.151C741.253 787.151 732.113 796.291 732.113 807.566C732.113 818.841 741.253 827.981 752.528 827.981Z" stroke="#2846AE" stroke-width="6" stroke-miterlimit="10"/>
<path d="M717.261 808.405C728.536 808.405 737.676 799.265 737.676 787.99C737.676 776.715 728.536 767.575 717.261 767.575C705.986 767.575 696.846 776.715 696.846 787.99C696.846 799.265 705.986 808.405 717.261 808.405Z" stroke="#852228" stroke-width="20" stroke-miterlimit="10"/>
<path d="M717.261 808.405C728.536 808.405 737.676 799.265 737.676 787.99C737.676 776.715 728.536 767.575 717.261 767.575C705.986 767.575 696.846 776.715 696.846 787.99C696.846 799.265 705.986 808.405 717.261 808.405Z" stroke="#A8CA4C" stroke-width="11" stroke-miterlimit="10"/>
<path d="M717.261 808.405C728.536 808.405 737.676 799.265 737.676 787.99C737.676 776.715 728.536 767.575 717.261 767.575C705.986 767.575 696.846 776.715 696.846 787.99C696.846 799.265 705.986 808.405 717.261 808.405Z" stroke="#2846AE" stroke-width="6" stroke-miterlimit="10"/>
<path d="M98.111 742.374C109.152 742.374 118.102 733.424 118.102 722.383C118.102 711.342 109.152 702.392 98.111 702.392C87.0703 702.392 78.12 711.342 78.12 722.383C78.12 733.424 87.0703 742.374 98.111 742.374Z" stroke="#852228" stroke-width="20" stroke-miterlimit="10"/>
<path d="M98.111 742.374C109.152 742.374 118.102 733.424 118.102 722.383C118.102 711.342 109.152 702.392 98.111 702.392C87.0703 702.392 78.12 711.342 78.12 722.383C78.12 733.424 87.0703 742.374 98.111 742.374Z" stroke="#A8CA4C" stroke-width="11" stroke-miterlimit="10"/>
<path d="M98.111 742.374C109.152 742.374 118.102 733.424 118.102 722.383C118.102 711.342 109.152 702.392 98.111 702.392C87.0703 702.392 78.12 711.342 78.12 722.383C78.12 733.424 87.0703 742.374 98.111 742.374Z" stroke="#2846AE" stroke-width="6" stroke-miterlimit="10"/>
<path d="M120.338 694.514C131.379 694.514 140.329 685.564 140.329 674.523C140.329 663.482 131.379 654.532 120.338 654.532C109.297 654.532 100.347 663.482 100.347 674.523C100.347 685.564 109.297 694.514 120.338 694.514Z" stroke="#852228" stroke-width="20" stroke-miterlimit="10"/>
<path d="M120.338 694.514C131.379 694.514 140.329 685.564 140.329 674.523C140.329 663.482 131.379 654.532 120.338 654.532C109.297 654.532 100.347 663.482 100.347 674.523C100.347 685.564 109.297 694.514 120.338 694.514Z" stroke="#A8CA4C" stroke-width="11" stroke-miterlimit="10"/>
<path d="M120.338 694.514C131.379 694.514 140.329 685.564 140.329 674.523C140.329 663.482 131.379 654.532 120.338 654.532C109.297 654.532 100.347 663.482 100.347 674.523C100.347 685.564 109.297 694.514 120.338 694.514Z" stroke="#2846AE" stroke-width="6" stroke-miterlimit="10"/>
<path d="M368.499 502.868C379.774 502.868 388.914 493.728 388.914 482.453C388.914 471.178 379.774 462.038 368.499 462.038C357.224 462.038 348.084 471.178 348.084 482.453C348.084 493.728 357.224 502.868 368.499 502.868Z" stroke="#852228" stroke-width="20" stroke-miterlimit="10"/>
<path d="M368.499 502.868C379.774 502.868 388.914 493.728 388.914 482.453C388.914 471.178 379.774 462.038 368.499 462.038C357.224 462.038 348.084 471.178 348.084 482.453C348.084 493.728 357.224 502.868 368.499 502.868Z" stroke="#A8CA4C" stroke-width="11" stroke-miterlimit="10"/>
<path d="M368.499 502.868C379.774 502.868 388.914 493.728 388.914 482.453C388.914 471.178 379.774 462.038 368.499 462.038C357.224 462.038 348.084 471.178 348.084 482.453C348.084 493.728 357.224 502.868 368.499 502.868Z" stroke="#2846AE" stroke-width="6" stroke-miterlimit="10"/>
<path d="M410.979 560.701C422.254 560.701 431.394 551.561 431.394 540.286C431.394 529.011 422.254 519.871 410.979 519.871C399.704 519.871 390.564 529.011 390.564 540.286C390.564 551.561 399.704 560.701 410.979 560.701Z" stroke="#852228" stroke-width="20" stroke-miterlimit="10"/>
<path d="M410.979 560.701C422.254 560.701 431.394 551.561 431.394 540.286C431.394 529.011 422.254 519.871 410.979 519.871C399.704 519.871 390.564 529.011 390.564 540.286C390.564 551.561 399.704 560.701 410.979 560.701Z" stroke="#A8CA4C" stroke-width="11" stroke-miterlimit="10"/>
<path d="M410.979 560.701C422.254 560.701 431.394 551.561 431.394 540.286C431.394 529.011 422.254 519.871 410.979 519.871C399.704 519.871 390.564 529.011 390.564 540.286C390.564 551.561 399.704 560.701 410.979 560.701Z" stroke="#2846AE" stroke-width="6" stroke-miterlimit="10"/>
<path d="M336.889 535.518C348.164 535.518 357.304 526.378 357.304 515.103C357.304 503.828 348.164 494.688 336.889 494.688C325.614 494.688 316.474 503.828 316.474 515.103C316.474 526.378 325.614 535.518 336.889 535.518Z" stroke="#852228" stroke-width="20" stroke-miterlimit="10"/>
<path d="M336.889 535.518C348.164 535.518 357.304 526.378 357.304 515.103C357.304 503.828 348.164 494.688 336.889 494.688C325.614 494.688 316.474 503.828 316.474 515.103C316.474 526.378 325.614 535.518 336.889 535.518Z" stroke="#A8CA4C" stroke-width="11" stroke-miterlimit="10"/>
<path d="M336.889 535.518C348.164 535.518 357.304 526.378 357.304 515.103C357.304 503.828 348.164 494.688 336.889 494.688C325.614 494.688 316.474 503.828 316.474 515.103C316.474 526.378 325.614 535.518 336.889 535.518Z" stroke="#2846AE" stroke-width="6" stroke-miterlimit="10"/>
<path d="M234.607 576.622C245.882 576.622 255.022 567.482 255.022 556.207C255.022 544.932 245.882 535.792 234.607 535.792C223.332 535.792 214.192 544.932 214.192 556.207C214.192 567.482 223.332 576.622 234.607 576.622Z" stroke="#852228" stroke-width="20" stroke-miterlimit="10"/>
<path d="M234.607 576.622C245.882 576.622 255.022 567.482 255.022 556.207C255.022 544.932 245.882 535.792 234.607 535.792C223.332 535.792 214.192 544.932 214.192 556.207C214.192 567.482 223.332 576.622 234.607 576.622Z" stroke="#A8CA4C" stroke-width="11" stroke-miterlimit="10"/>
<path d="M234.607 576.622C245.882 576.622 255.022 567.482 255.022 556.207C255.022 544.932 245.882 535.792 234.607 535.792C223.332 535.792 214.192 544.932 214.192 556.207C214.192 567.482 223.332 576.622 234.607 576.622Z" stroke="#2846AE" stroke-width="6" stroke-miterlimit="10"/>
<path d="M260.93 606.575C272.205 606.575 281.345 597.435 281.345 586.16C281.345 574.885 272.205 565.745 260.93 565.745C249.655 565.745 240.515 574.885 240.515 586.16C240.515 597.435 249.655 606.575 260.93 606.575Z" stroke="#852228" stroke-width="20" stroke-miterlimit="10"/>
<path d="M260.93 606.575C272.205 606.575 281.345 597.435 281.345 586.16C281.345 574.885 272.205 565.745 260.93 565.745C249.655 565.745 240.515 574.885 240.515 586.16C240.515 597.435 249.655 606.575 260.93 606.575Z" stroke="#A8CA4C" stroke-width="11" stroke-miterlimit="10"/>
<path d="M260.93 606.575C272.205 606.575 281.345 597.435 281.345 586.16C281.345 574.885 272.205 565.745 260.93 565.745C249.655 565.745 240.515 574.885 240.515 586.16C240.515 597.435 249.655 606.575 260.93 606.575Z" stroke="#2846AE" stroke-width="6" stroke-miterlimit="10"/>
<path d="M469.672 673.268C480.947 673.268 490.087 664.128 490.087 652.853C490.087 641.578 480.947 632.438 469.672 632.438C458.397 632.438 449.257 641.578 449.257 652.853C449.257 664.128 458.397 673.268 469.672 673.268Z" stroke="#852228" stroke-width="20" stroke-miterlimit="10"/>
<path d="M469.672 673.268C480.947 673.268 490.087 664.128 490.087 652.853C490.087 641.578 480.947 632.438 469.672 632.438C458.397 632.438 449.257 641.578 449.257 652.853C449.257 664.128 458.397 673.268 469.672 673.268Z" stroke="#A8CA4C" stroke-width="11" stroke-miterlimit="10"/>
<path d="M469.672 673.268C480.947 673.268 490.087 664.128 490.087 652.853C490.087 641.578 480.947 632.438 469.672 632.438C458.397 632.438 449.257 641.578 449.257 652.853C449.257 664.128 458.397 673.268 469.672 673.268Z" stroke="#2846AE" stroke-width="6" stroke-miterlimit="10"/>
<path d="M505.954 656.9C517.229 656.9 526.369 647.76 526.369 636.485C526.369 625.21 517.229 616.07 505.954 616.07C494.679 616.07 485.539 625.21 485.539 636.485C485.539 647.76 494.679 656.9 505.954 656.9Z" stroke="#852228" stroke-width="20" stroke-miterlimit="10"/>
<path d="M505.954 656.9C517.229 656.9 526.369 647.76 526.369 636.485C526.369 625.21 517.229 616.07 505.954 616.07C494.679 616.07 485.539 625.21 485.539 636.485C485.539 647.76 494.679 656.9 505.954 656.9Z" stroke="#A8CA4C" stroke-width="11" stroke-miterlimit="10"/>
<path d="M505.954 656.9C517.229 656.9 526.369 647.76 526.369 636.485C526.369 625.21 517.229 616.07 505.954 616.07C494.679 616.07 485.539 625.21 485.539 636.485C485.539 647.76 494.679 656.9 505.954 656.9Z" stroke="#2846AE" stroke-width="6" stroke-miterlimit="10"/>
<path d="M165.183 783.538C176.458 783.538 185.598 774.398 185.598 763.123C185.598 751.848 176.458 742.708 165.183 742.708C153.908 742.708 144.768 751.848 144.768 763.123C144.768 774.398 153.908 783.538 165.183 783.538Z" stroke="#852228" stroke-width="20" stroke-miterlimit="10"/>
<path d="M165.183 783.538C176.458 783.538 185.598 774.398 185.598 763.123C185.598 751.848 176.458 742.708 165.183 742.708C153.908 742.708 144.768 751.848 144.768 763.123C144.768 774.398 153.908 783.538 165.183 783.538Z" stroke="#A8CA4C" stroke-width="11" stroke-miterlimit="10"/>
<path d="M165.183 783.538C176.458 783.538 185.598 774.398 185.598 763.123C185.598 751.848 176.458 742.708 165.183 742.708C153.908 742.708 144.768 751.848 144.768 763.123C144.768 774.398 153.908 783.538 165.183 783.538Z" stroke="#2846AE" stroke-width="6" stroke-miterlimit="10"/>
<path d="M234.596 754.14C245.871 754.14 255.011 745 255.011 733.725C255.011 722.45 245.871 713.31 234.596 713.31C223.321 713.31 214.181 722.45 214.181 733.725C214.181 745 223.321 754.14 234.596 754.14Z" stroke="#852228" stroke-width="20" stroke-miterlimit="10"/>
<path d="M234.596 754.14C245.871 754.14 255.011 745 255.011 733.725C255.011 722.45 245.871 713.31 234.596 713.31C223.321 713.31 214.181 722.45 214.181 733.725C214.181 745 223.321 754.14 234.596 754.14Z" stroke="#A8CA4C" stroke-width="11" stroke-miterlimit="10"/>
<path d="M234.596 754.14C245.871 754.14 255.011 745 255.011 733.725C255.011 722.45 245.871 713.31 234.596 713.31C223.321 713.31 214.181 722.45 214.181 733.725C214.181 745 223.321 754.14 234.596 754.14Z" stroke="#2846AE" stroke-width="6" stroke-miterlimit="10"/>
<path d="M185.1 735.494C196.375 735.494 205.515 726.354 205.515 715.079C205.515 703.804 196.375 694.664 185.1 694.664C173.825 694.664 164.685 703.804 164.685 715.079C164.685 726.354 173.825 735.494 185.1 735.494Z" stroke="#852228" stroke-width="20" stroke-miterlimit="10"/>
<path d="M185.1 735.494C196.375 735.494 205.515 726.354 205.515 715.079C205.515 703.804 196.375 694.664 185.1 694.664C173.825 694.664 164.685 703.804 164.685 715.079C164.685 726.354 173.825 735.494 185.1 735.494Z" stroke="#A8CA4C" stroke-width="11" stroke-miterlimit="10"/>
<path d="M185.1 735.494C196.375 735.494 205.515 726.354 205.515 715.079C205.515 703.804 196.375 694.664 185.1 694.664C173.825 694.664 164.685 703.804 164.685 715.079C164.685 726.354 173.825 735.494 185.1 735.494Z" stroke="#2846AE" stroke-width="6" stroke-miterlimit="10"/>
</g>
<defs>
<filter id="filter0_dd_15_69" x="-4" y="0" width="1928" height="1088" filterUnits="userSpaceOnUse" color-interpolation-filters="sRGB">
<feFlood flood-opacity="0" result="BackgroundImageFix"/>
<feColorMatrix in="SourceAlpha" type="matrix" values="0 0 0 0 0 0 0 0 0 0 0 0 0 0 0 0 0 0 127 0" result="hardAlpha"/>
<feOffset dy="4"/>
<feGaussianBlur stdDeviation="2"/>
<feComposite in2="hardAlpha" operator="out"/>
<feColorMatrix type="matrix" values="0 0 0 0 0 0 0 0 0 0 0 0 0 0 0 0 0 0 0.25 0"/>
<feBlend mode="normal" in2="BackgroundImageFix" result="effect1_dropShadow_15_69"/>
<feColorMatrix in="SourceAlpha" type="matrix" values="0 0 0 0 0 0 0 0 0 0 0 0 0 0 0 0 0 0 127 0" result="hardAlpha"/>
<feOffset dy="4"/>
<feGaussianBlur stdDeviation="2"/>
<feComposite in2="hardAlpha" operator="out"/>
<feColorMatrix type="matrix" values="0 0 0 0 0 0 0 0 0 0 0 0 0 0 0 0 0 0 0.25 0"/>
<feBlend mode="normal" in2="effect1_dropShadow_15_69" result="effect2_dropShadow_15_69"/>
<feBlend mode="normal" in="SourceGraphic" in2="effect2_dropShadow_15_69" result="shape"/>
</filter>
</defs>
</svg>
