<svg width="1920" height="1080" viewBox="0 0 1920 1080" fill="none" xmlns="http://www.w3.org/2000/svg">
<path d="M1345.21 294.005C1355.28 294.005 1363.45 285.837 1363.45 275.761C1363.45 265.685 1355.28 257.517 1345.21 257.517C1335.13 257.517 1326.96 265.685 1326.96 275.761C1326.96 285.837 1335.13 294.005 1345.21 294.005Z" stroke="#5F1985" stroke-width="20" stroke-miterlimit="10"/>
<path d="M1345.21 294.005C1355.28 294.005 1363.45 285.837 1363.45 275.761C1363.45 265.685 1355.28 257.517 1345.21 257.517C1335.13 257.517 1326.96 265.685 1326.96 275.761C1326.96 285.837 1335.13 294.005 1345.21 294.005Z" stroke="#CAA342" stroke-width="11" stroke-miterlimit="10"/>
<path d="M1345.21 294.005C1355.28 294.005 1363.45 285.837 1363.45 275.761C1363.45 265.685 1355.28 257.517 1345.21 257.517C1335.13 257.517 1326.96 265.685 1326.96 275.761C1326.96 285.837 1335.13 294.005 1345.21 294.005Z" stroke="#2CAE65" stroke-width="6" stroke-miterlimit="10"/>
<path d="M1536.42 471.87C1546.5 471.87 1554.67 463.702 1554.67 453.626C1554.67 443.55 1546.5 435.382 1536.42 435.382C1526.35 435.382 1518.18 443.55 1518.18 453.626C1518.18 463.702 1526.35 471.87 1536.42 471.87Z" stroke="#5F1985" stroke-width="20" stroke-miterlimit="10"/>
<path d="M1536.42 471.87C1546.5 471.87 1554.67 463.702 1554.67 453.626C1554.67 443.55 1546.5 435.382 1536.42 435.382C1526.35 435.382 1518.18 443.55 1518.18 453.626C1518.18 463.702 1526.35 471.87 1536.42 471.87Z" stroke="#CAA342" stroke-width="11" stroke-miterlimit="10"/>
<path d="M1536.42 471.87C1546.5 471.87 1554.67 463.702 1554.67 453.626C1554.67 443.55 1546.5 435.382 1536.42 435.382C1526.35 435.382 1518.18 443.55 1518.18 453.626C1518.18 463.702 1526.35 471.87 1536.42 471.87Z" stroke="#2CAE65" stroke-width="6" stroke-miterlimit="10"/>
<path d="M1537.81 509.56C1547.88 509.56 1556.05 501.392 1556.05 491.316C1556.05 481.24 1547.88 473.072 1537.81 473.072C1527.73 473.072 1519.56 481.24 1519.56 491.316C1519.56 501.392 1527.73 509.56 1537.81 509.56Z" stroke="#5F1985" stroke-width="20" stroke-miterlimit="10"/>
<path d="M1537.81 509.56C1547.88 509.56 1556.05 501.392 1556.05 491.316C1556.05 481.24 1547.88 473.072 1537.81 473.072C1527.73 473.072 1519.56 481.24 1519.56 491.316C1519.56 501.392 1527.73 509.56 1537.81 509.56Z" stroke="#CAA342" stroke-width="11" stroke-miterlimit="10"/>
<path d="M1537.81 509.56C1547.88 509.56 1556.05 501.392 1556.05 491.316C1556.05 481.24 1547.88 473.072 1537.81 473.072C1527.73 473.072 1519.56 481.24 1519.56 491.316C1519.56 501.392 1527.73 509.56 1537.81 509.56Z" stroke="#2CAE65" stroke-width="6" stroke-miterlimit="10"/>
<path d="M1490.7 469.469C1500.78 469.469 1508.94 461.301 1508.94 451.225C1508.94 441.149 1500.78 432.981 1490.7 432.981C1480.63 432.981 1472.46 441.149 1472.46 451.225C1472.46 461.301 1480.63 469.469 1490.7 469.469Z" stroke="#5F1985" stroke-width="20" stroke-miterlimit="10"/>
<path d="M1490.7 469.469C1500.78 469.469 1508.94 461.301 1508.94 451.225C1508.94 441.149 1500.78 432.981 1490.7 432.981C1480.63 432.981 1472.46 441.149 1472.46 451.225C1472.46 461.301 1480.63 469.469 1490.7 469.469Z" stroke="#CAA342" stroke-width="11" stroke-miterlimit="10"/>
<path d="M1490.7 469.469C1500.78 469.469 1508.94 461.301 1508.94 451.225C1508.94 441.149 1500.78 432.981 1490.7 432.981C1480.63 432.981 1472.46 441.149 1472.46 451.225C1472.46 461.301 1480.63 469.469 1490.7 469.469Z" stroke="#2CAE65" stroke-width="6" stroke-miterlimit="10"/>
<path d="M1161.52 453.745C1171.6 453.745 1179.77 445.577 1179.77 435.501C1179.77 425.425 1171.6 417.257 1161.52 417.257C1151.45 417.257 1143.28 425.425 1143.28 435.501C1143.28 445.577 1151.45 453.745 1161.52 453.745Z" stroke="#5F1985" stroke-width="20" stroke-miterlimit="10"/>
<path d="M1161.52 453.745C1171.6 453.745 1179.77 445.577 1179.77 435.501C1179.77 425.425 1171.6 417.257 1161.52 417.257C1151.45 417.257 1143.28 425.425 1143.28 435.501C1143.28 445.577 1151.45 453.745 1161.52 453.745Z" stroke="#CAA342" stroke-width="11" stroke-miterlimit="10"/>
<path d="M1161.52 453.745C1171.6 453.745 1179.77 445.577 1179.77 435.501C1179.77 425.425 1171.6 417.257 1161.52 417.257C1151.45 417.257 1143.28 425.425 1143.28 435.501C1143.28 445.577 1151.45 453.745 1161.52 453.745Z" stroke="#2CAE65" stroke-width="6" stroke-miterlimit="10"/>
<path d="M1197.21 372.631C1207.29 372.631 1215.46 364.463 1215.46 354.387C1215.46 344.311 1207.29 336.143 1197.21 336.143C1187.14 336.143 1178.97 344.311 1178.97 354.387C1178.97 364.463 1187.14 372.631 1197.21 372.631Z" stroke="#5F1985" stroke-width="20" stroke-miterlimit="10"/>
<path d="M1197.21 372.631C1207.29 372.631 1215.46 364.463 1215.46 354.387C1215.46 344.311 1207.29 336.143 1197.21 336.143C1187.14 336.143 1178.97 344.311 1178.97 354.387C1178.97 364.463 1187.14 372.631 1197.21 372.631Z" stroke="#CAA342" stroke-width="11" stroke-miterlimit="10"/>
<path d="M1197.21 372.631C1207.29 372.631 1215.46 364.463 1215.46 354.387C1215.46 344.311 1207.29 336.143 1197.21 336.143C1187.14 336.143 1178.97 344.311 1178.97 354.387C1178.97 364.463 1187.14 372.631 1197.21 372.631Z" stroke="#2CAE65" stroke-width="6" stroke-miterlimit="10"/>
<path d="M1163.1 348.536C1173.18 348.536 1181.35 340.368 1181.35 330.292C1181.35 320.216 1173.18 312.048 1163.1 312.048C1153.03 312.048 1144.86 320.216 1144.86 330.292C1144.86 340.368 1153.03 348.536 1163.1 348.536Z" stroke="#5F1985" stroke-width="20" stroke-miterlimit="10"/>
<path d="M1163.1 348.536C1173.18 348.536 1181.35 340.368 1181.35 330.292C1181.35 320.216 1173.18 312.048 1163.1 312.048C1153.03 312.048 1144.86 320.216 1144.86 330.292C1144.86 340.368 1153.03 348.536 1163.1 348.536Z" stroke="#CAA342" stroke-width="11" stroke-miterlimit="10"/>
<path d="M1163.1 348.536C1173.18 348.536 1181.35 340.368 1181.35 330.292C1181.35 320.216 1173.18 312.048 1163.1 312.048C1153.03 312.048 1144.86 320.216 1144.86 330.292C1144.86 340.368 1153.03 348.536 1163.1 348.536Z" stroke="#2CAE65" stroke-width="6" stroke-miterlimit="10"/>
<path d="M1304.34 479.577C1314.41 479.577 1322.58 471.409 1322.58 461.333C1322.58 451.257 1314.41 443.089 1304.34 443.089C1294.26 443.089 1286.09 451.257 1286.09 461.333C1286.09 471.409 1294.26 479.577 1304.34 479.577Z" stroke="#5F1985" stroke-width="20" stroke-miterlimit="10"/>
<path d="M1304.34 479.577C1314.41 479.577 1322.58 471.409 1322.58 461.333C1322.58 451.257 1314.41 443.089 1304.34 443.089C1294.26 443.089 1286.09 451.257 1286.09 461.333C1286.09 471.409 1294.26 479.577 1304.34 479.577Z" stroke="#CAA342" stroke-width="11" stroke-miterlimit="10"/>
<path d="M1304.34 479.577C1314.41 479.577 1322.58 471.409 1322.58 461.333C1322.58 451.257 1314.41 443.089 1304.34 443.089C1294.26 443.089 1286.09 451.257 1286.09 461.333C1286.09 471.409 1294.26 479.577 1304.34 479.577Z" stroke="#2CAE65" stroke-width="6" stroke-miterlimit="10"/>
<path d="M1182.29 227.238C1192.36 227.238 1200.53 219.07 1200.53 208.994C1200.53 198.918 1192.36 190.75 1182.29 190.75C1172.21 190.75 1164.04 198.918 1164.04 208.994C1164.04 219.07 1172.21 227.238 1182.29 227.238Z" stroke="#5F1985" stroke-width="20" stroke-miterlimit="10"/>
<path d="M1182.29 227.238C1192.36 227.238 1200.53 219.07 1200.53 208.994C1200.53 198.918 1192.36 190.75 1182.29 190.75C1172.21 190.75 1164.04 198.918 1164.04 208.994C1164.04 219.07 1172.21 227.238 1182.29 227.238Z" stroke="#CAA342" stroke-width="11" stroke-miterlimit="10"/>
<path d="M1182.29 227.238C1192.36 227.238 1200.53 219.07 1200.53 208.994C1200.53 198.918 1192.36 190.75 1182.29 190.75C1172.21 190.75 1164.04 198.918 1164.04 208.994C1164.04 219.07 1172.21 227.238 1182.29 227.238Z" stroke="#2CAE65" stroke-width="6" stroke-miterlimit="10"/>
<path d="M1161.42 261.213C1171.5 261.213 1179.67 253.045 1179.67 242.969C1179.67 232.893 1171.5 224.725 1161.42 224.725C1151.35 224.725 1143.18 232.893 1143.18 242.969C1143.18 253.045 1151.35 261.213 1161.42 261.213Z" stroke="#5F1985" stroke-width="20" stroke-miterlimit="10"/>
<path d="M1161.42 261.213C1171.5 261.213 1179.67 253.045 1179.67 242.969C1179.67 232.893 1171.5 224.725 1161.42 224.725C1151.35 224.725 1143.18 232.893 1143.18 242.969C1143.18 253.045 1151.35 261.213 1161.42 261.213Z" stroke="#CAA342" stroke-width="11" stroke-miterlimit="10"/>
<path d="M1161.42 261.213C1171.5 261.213 1179.67 253.045 1179.67 242.969C1179.67 232.893 1171.5 224.725 1161.42 224.725C1151.35 224.725 1143.18 232.893 1143.18 242.969C1143.18 253.045 1151.35 261.213 1161.42 261.213Z" stroke="#2CAE65" stroke-width="6" stroke-miterlimit="10"/>
<path d="M1124.9 281.891C1134.98 281.891 1143.15 273.723 1143.15 263.647C1143.15 253.571 1134.98 245.403 1124.9 245.403C1114.83 245.403 1106.66 253.571 1106.66 263.647C1106.66 273.723 1114.83 281.891 1124.9 281.891Z" stroke="#5F1985" stroke-width="20" stroke-miterlimit="10"/>
<path d="M1124.9 281.891C1134.98 281.891 1143.15 273.723 1143.15 263.647C1143.15 253.571 1134.98 245.403 1124.9 245.403C1114.83 245.403 1106.66 253.571 1106.66 263.647C1106.66 273.723 1114.83 281.891 1124.9 281.891Z" stroke="#CAA342" stroke-width="11" stroke-miterlimit="10"/>
<path d="M1124.9 281.891C1134.98 281.891 1143.15 273.723 1143.15 263.647C1143.15 253.571 1134.98 245.403 1124.9 245.403C1114.83 245.403 1106.66 253.571 1106.66 263.647C1106.66 273.723 1114.83 281.891 1124.9 281.891Z" stroke="#2CAE65" stroke-width="6" stroke-miterlimit="10"/>
<path d="M1094.93 464.632C1105.01 464.632 1113.18 456.464 1113.18 446.388C1113.18 436.312 1105.01 428.144 1094.93 428.144C1084.86 428.144 1076.69 436.312 1076.69 446.388C1076.69 456.464 1084.86 464.632 1094.93 464.632Z" stroke="#5F1985" stroke-width="20" stroke-miterlimit="10"/>
<path d="M1094.93 464.632C1105.01 464.632 1113.18 456.464 1113.18 446.388C1113.18 436.312 1105.01 428.144 1094.93 428.144C1084.86 428.144 1076.69 436.312 1076.69 446.388C1076.69 456.464 1084.86 464.632 1094.93 464.632Z" stroke="#CAA342" stroke-width="11" stroke-miterlimit="10"/>
<path d="M1094.93 464.632C1105.01 464.632 1113.18 456.464 1113.18 446.388C1113.18 436.312 1105.01 428.144 1094.93 428.144C1084.86 428.144 1076.69 436.312 1076.69 446.388C1076.69 456.464 1084.86 464.632 1094.93 464.632Z" stroke="#2CAE65" stroke-width="6" stroke-miterlimit="10"/>
<path d="M1443.53 389.686C1453.61 389.686 1461.78 381.518 1461.78 371.442C1461.78 361.366 1453.61 353.198 1443.53 353.198C1433.46 353.198 1425.29 361.366 1425.29 371.442C1425.29 381.518 1433.46 389.686 1443.53 389.686Z" stroke="#5F1985" stroke-width="20" stroke-miterlimit="10"/>
<path d="M1443.53 389.686C1453.61 389.686 1461.78 381.518 1461.78 371.442C1461.78 361.366 1453.61 353.198 1443.53 353.198C1433.46 353.198 1425.29 361.366 1425.29 371.442C1425.29 381.518 1433.46 389.686 1443.53 389.686Z" stroke="#CAA342" stroke-width="11" stroke-miterlimit="10"/>
<path d="M1443.53 389.686C1453.61 389.686 1461.78 381.518 1461.78 371.442C1461.78 361.366 1453.61 353.198 1443.53 353.198C1433.46 353.198 1425.29 361.366 1425.29 371.442C1425.29 381.518 1433.46 389.686 1443.53 389.686Z" stroke="#2CAE65" stroke-width="6" stroke-miterlimit="10"/>
<path d="M1230.05 255.712C1240.13 255.712 1248.3 247.544 1248.3 237.468C1248.3 227.392 1240.13 219.224 1230.05 219.224C1219.98 219.224 1211.81 227.392 1211.81 237.468C1211.81 247.544 1219.98 255.712 1230.05 255.712Z" stroke="#5F1985" stroke-width="20" stroke-miterlimit="10"/>
<path d="M1230.05 255.712C1240.13 255.712 1248.3 247.544 1248.3 237.468C1248.3 227.392 1240.13 219.224 1230.05 219.224C1219.98 219.224 1211.81 227.392 1211.81 237.468C1211.81 247.544 1219.98 255.712 1230.05 255.712Z" stroke="#CAA342" stroke-width="11" stroke-miterlimit="10"/>
<path d="M1230.05 255.712C1240.13 255.712 1248.3 247.544 1248.3 237.468C1248.3 227.392 1240.13 219.224 1230.05 219.224C1219.98 219.224 1211.81 227.392 1211.81 237.468C1211.81 247.544 1219.98 255.712 1230.05 255.712Z" stroke="#2CAE65" stroke-width="6" stroke-miterlimit="10"/>
<path d="M1419.12 425.235C1429.19 425.235 1437.36 417.067 1437.36 406.991C1437.36 396.915 1429.19 388.747 1419.12 388.747C1409.04 388.747 1400.88 396.915 1400.88 406.991C1400.88 417.067 1409.04 425.235 1419.12 425.235Z" stroke="#5F1985" stroke-width="20" stroke-miterlimit="10"/>
<path d="M1419.12 425.235C1429.19 425.235 1437.36 417.067 1437.36 406.991C1437.36 396.915 1429.19 388.747 1419.12 388.747C1409.04 388.747 1400.88 396.915 1400.88 406.991C1400.88 417.067 1409.04 425.235 1419.12 425.235Z" stroke="#CAA342" stroke-width="11" stroke-miterlimit="10"/>
<path d="M1419.12 425.235C1429.19 425.235 1437.36 417.067 1437.36 406.991C1437.36 396.915 1429.19 388.747 1419.12 388.747C1409.04 388.747 1400.88 396.915 1400.88 406.991C1400.88 417.067 1409.04 425.235 1419.12 425.235Z" stroke="#2CAE65" stroke-width="6" stroke-miterlimit="10"/>
<path d="M1350.31 454.214C1360.39 454.214 1368.56 446.046 1368.56 435.97C1368.56 425.894 1360.39 417.726 1350.31 417.726C1340.24 417.726 1332.07 425.894 1332.07 435.97C1332.07 446.046 1340.24 454.214 1350.31 454.214Z" stroke="#5F1985" stroke-width="20" stroke-miterlimit="10"/>
<path d="M1350.31 454.214C1360.39 454.214 1368.56 446.046 1368.56 435.97C1368.56 425.894 1360.39 417.726 1350.31 417.726C1340.24 417.726 1332.07 425.894 1332.07 435.97C1332.07 446.046 1340.24 454.214 1350.31 454.214Z" stroke="#CAA342" stroke-width="11" stroke-miterlimit="10"/>
<path d="M1350.31 454.214C1360.39 454.214 1368.56 446.046 1368.56 435.97C1368.56 425.894 1360.39 417.726 1350.31 417.726C1340.24 417.726 1332.07 425.894 1332.07 435.97C1332.07 446.046 1340.24 454.214 1350.31 454.214Z" stroke="#2CAE65" stroke-width="6" stroke-miterlimit="10"/>
<path d="M1317.01 265.091C1327.09 265.091 1335.26 256.923 1335.26 246.847C1335.26 236.771 1327.09 228.603 1317.01 228.603C1306.94 228.603 1298.77 236.771 1298.77 246.847C1298.77 256.923 1306.94 265.091 1317.01 265.091Z" stroke="#5F1985" stroke-width="20" stroke-miterlimit="10"/>
<path d="M1317.01 265.091C1327.09 265.091 1335.26 256.923 1335.26 246.847C1335.26 236.771 1327.09 228.603 1317.01 228.603C1306.94 228.603 1298.77 236.771 1298.77 246.847C1298.77 256.923 1306.94 265.091 1317.01 265.091Z" stroke="#CAA342" stroke-width="11" stroke-miterlimit="10"/>
<path d="M1317.01 265.091C1327.09 265.091 1335.26 256.923 1335.26 246.847C1335.26 236.771 1327.09 228.603 1317.01 228.603C1306.94 228.603 1298.77 236.771 1298.77 246.847C1298.77 256.923 1306.94 265.091 1317.01 265.091Z" stroke="#2CAE65" stroke-width="6" stroke-miterlimit="10"/>
<path d="M1362.59 484.941C1372.67 484.941 1380.84 476.773 1380.84 466.697C1380.84 456.621 1372.67 448.453 1362.59 448.453C1352.52 448.453 1344.35 456.621 1344.35 466.697C1344.35 476.773 1352.52 484.941 1362.59 484.941Z" stroke="#5F1985" stroke-width="20" stroke-miterlimit="10"/>
<path d="M1362.59 484.941C1372.67 484.941 1380.84 476.773 1380.84 466.697C1380.84 456.621 1372.67 448.453 1362.59 448.453C1352.52 448.453 1344.35 456.621 1344.35 466.697C1344.35 476.773 1352.52 484.941 1362.59 484.941Z" stroke="#CAA342" stroke-width="11" stroke-miterlimit="10"/>
<path d="M1362.59 484.941C1372.67 484.941 1380.84 476.773 1380.84 466.697C1380.84 456.621 1372.67 448.453 1362.59 448.453C1352.52 448.453 1344.35 456.621 1344.35 466.697C1344.35 476.773 1352.52 484.941 1362.59 484.941Z" stroke="#2CAE65" stroke-width="6" stroke-miterlimit="10"/>
<path d="M1298.47 302.178C1308.55 302.178 1316.71 294.01 1316.71 283.934C1316.71 273.858 1308.55 265.69 1298.47 265.69C1288.39 265.69 1280.23 273.858 1280.23 283.934C1280.23 294.01 1288.39 302.178 1298.47 302.178Z" stroke="#5F1985" stroke-width="20" stroke-miterlimit="10"/>
<path d="M1298.47 302.178C1308.55 302.178 1316.71 294.01 1316.71 283.934C1316.71 273.858 1308.55 265.69 1298.47 265.69C1288.39 265.69 1280.23 273.858 1280.23 283.934C1280.23 294.01 1288.39 302.178 1298.47 302.178Z" stroke="#CAA342" stroke-width="11" stroke-miterlimit="10"/>
<path d="M1298.47 302.178C1308.55 302.178 1316.71 294.01 1316.71 283.934C1316.71 273.858 1308.55 265.69 1298.47 265.69C1288.39 265.69 1280.23 273.858 1280.23 283.934C1280.23 294.01 1288.39 302.178 1298.47 302.178Z" stroke="#2CAE65" stroke-width="6" stroke-miterlimit="10"/>
<path d="M1059.54 436.745C1069.61 436.745 1077.78 428.577 1077.78 418.501C1077.78 408.425 1069.61 400.257 1059.54 400.257C1049.46 400.257 1041.29 408.425 1041.29 418.501C1041.29 428.577 1049.46 436.745 1059.54 436.745Z" stroke="#5F1985" stroke-width="20" stroke-miterlimit="10"/>
<path d="M1059.54 436.745C1069.61 436.745 1077.78 428.577 1077.78 418.501C1077.78 408.425 1069.61 400.257 1059.54 400.257C1049.46 400.257 1041.29 408.425 1041.29 418.501C1041.29 428.577 1049.46 436.745 1059.54 436.745Z" stroke="#CAA342" stroke-width="11" stroke-miterlimit="10"/>
<path d="M1059.54 436.745C1069.61 436.745 1077.78 428.577 1077.78 418.501C1077.78 408.425 1069.61 400.257 1059.54 400.257C1049.46 400.257 1041.29 408.425 1041.29 418.501C1041.29 428.577 1049.46 436.745 1059.54 436.745Z" stroke="#2CAE65" stroke-width="6" stroke-miterlimit="10"/>
<path d="M1048.81 475.43C1058.89 475.43 1067.06 467.262 1067.06 457.186C1067.06 447.11 1058.89 438.942 1048.81 438.942C1038.74 438.942 1030.57 447.11 1030.57 457.186C1030.57 467.262 1038.74 475.43 1048.81 475.43Z" stroke="#5F1985" stroke-width="20" stroke-miterlimit="10"/>
<path d="M1048.81 475.43C1058.89 475.43 1067.06 467.262 1067.06 457.186C1067.06 447.11 1058.89 438.942 1048.81 438.942C1038.74 438.942 1030.57 447.11 1030.57 457.186C1030.57 467.262 1038.74 475.43 1048.81 475.43Z" stroke="#CAA342" stroke-width="11" stroke-miterlimit="10"/>
<path d="M1048.81 475.43C1058.89 475.43 1067.06 467.262 1067.06 457.186C1067.06 447.11 1058.89 438.942 1048.81 438.942C1038.74 438.942 1030.57 447.11 1030.57 457.186C1030.57 467.262 1038.74 475.43 1048.81 475.43Z" stroke="#2CAE65" stroke-width="6" stroke-miterlimit="10"/>
<path d="M1077.33 393.811C1087.41 393.811 1095.58 385.643 1095.58 375.567C1095.58 365.491 1087.41 357.323 1077.33 357.323C1067.26 357.323 1059.09 365.491 1059.09 375.567C1059.09 385.643 1067.26 393.811 1077.33 393.811Z" stroke="#5F1985" stroke-width="20" stroke-miterlimit="10"/>
<path d="M1077.33 393.811C1087.41 393.811 1095.58 385.643 1095.58 375.567C1095.58 365.491 1087.41 357.323 1077.33 357.323C1067.26 357.323 1059.09 365.491 1059.09 375.567C1059.09 385.643 1067.26 393.811 1077.33 393.811Z" stroke="#CAA342" stroke-width="11" stroke-miterlimit="10"/>
<path d="M1077.33 393.811C1087.41 393.811 1095.58 385.643 1095.58 375.567C1095.58 365.491 1087.41 357.323 1077.33 357.323C1067.26 357.323 1059.09 365.491 1059.09 375.567C1059.09 385.643 1067.26 393.811 1077.33 393.811Z" stroke="#2CAE65" stroke-width="6" stroke-miterlimit="10"/>
</svg>
