<?xml version="1.0" encoding="iso-8859-1"?>
<!-- Generator: Adobe Illustrator 28.5.0, SVG Export Plug-In . SVG Version: 9.03 Build 54727)  -->
<svg version="1.1" id="Layer_1" xmlns="http://www.w3.org/2000/svg" xmlns:xlink="http://www.w3.org/1999/xlink" x="0px" y="0px"
	 viewBox="0 0 1920 1080" style="enable-background:new 0 0 1920 1080;" xml:space="preserve">
<g id="Layer_13">
	<path style="fill:none;stroke:#DFECF5;stroke-width:16;stroke-miterlimit:10;" d="M1458.787,889.805
		c39.622,13.76,54.975,32.289,61.301,47.679c7.209,17.537,4.252,34.787,15.325,40.868c10.323,5.669,25.719-2.28,37.462-10.217"/>
</g>
<g id="Layer_12">
	<path style="fill:none;stroke:#DFECF5;stroke-width:12;stroke-miterlimit:10;" d="M1072.561,808.564l37.439,20.421
		c0,0,1.702,47.649,30.631,52.754c28.93,5.105,69.772-3.404,78.281,0s28.93,23.825,28.93,23.825"/>
</g>
<g id="Layer_11">
	<path style="fill:none;stroke:#DFECF5;stroke-width:7;stroke-miterlimit:10;" d="M1278.081,871.56l91.895,25.526
		c0,0,8.327,23.993-8.509,22.123c-30.631-3.404-37.018-43.88-5.105-49.351c59.561-10.211,74.877,105.509,105.509,91.895"/>
</g>
<g id="Layer_10">
	<path style="fill:none;stroke:#DFECF5;stroke-width:12;stroke-miterlimit:10;" d="M857.048,752.797l56.392,44.289
		c0,0-6.438-32.187,31.157-8.24c37.595,23.947,94.502-6.181,94.502-6.181"/>
</g>
<g id="Layer_9">
	<path style="fill:none;stroke:#DFECF5;stroke-width:5;stroke-miterlimit:10;" d="M969.522,883.407
		c0,0,34.176,81.496,102.528,21.031c68.352-60.465,102.256-102.289,103.706-76.119l68.91,106.016l35.339-3.534
		c0,0,38.872-24.737,51.241-14.135c12.369,10.602,1.767-1.767,12.369,10.602s21.203,22.97,21.203,22.97l30.038,7.068l14.135-5.301
		l83.046,58.309"/>
</g>
<g id="Layer_8">
	<polyline style="fill:none;stroke:#DFECF5;stroke-width:9;stroke-miterlimit:10;" points="1192.98,928.099 1298.136,991.192 
		1324.426,978.048 1345.457,991.192 	"/>
</g>
<g id="Layer_7">
	<path style="fill:none;stroke:#DFECF5;stroke-width:8;stroke-miterlimit:10;" d="M1553.533,945.207
		c26.311,7.176,62.189,19.135,62.189,19.135l28.703-11.96c40.662,21.527-28.703,55.014,62.189,38.27"/>
</g>
<g id="Layer_6">
	
		<line style="fill:none;stroke:#DFECF5;stroke-width:39;stroke-miterlimit:10;" x1="1280.644" y1="895.305" x2="1302.759" y2="953.609"/>
</g>
<g id="Layer_5">
	<path style="fill:none;stroke:#DFECF5;stroke-width:39;stroke-miterlimit:10;" d="M965.64,843.901l46.089,1.355
		c0,0-15.996-58.831,20.875-47.174s100.854-17.352,100.854-17.352"/>
</g>
<g id="Layer_4">
	<polyline style="fill:none;stroke:#DFECF5;stroke-width:17;stroke-miterlimit:10;" points="906.389,687.979 909.852,658.542 
		951.411,660.273 956.606,675.858 	"/>
</g>
<g id="Layer_3">
	<path style="fill:none;stroke:#DFECF5;stroke-width:11;stroke-miterlimit:10;" d="M912.77,692.77
		c-0.938,9.278-5.951,30.102,30.956,45.467c36.907,15.365,129.685,24.743,132.619,34.089c2.934,9.346-21.573,37.572-21.573,37.572"
		/>
</g>
</svg>
