<svg width="1920" height="1080" viewBox="0 0 1920 1080" fill="none" xmlns="http://www.w3.org/2000/svg">
<path d="M1458.79 889.805C1498.41 903.565 1513.76 922.094 1520.09 937.484C1527.3 955.021 1524.34 972.271 1535.41 978.352C1545.74 984.021 1561.13 976.072 1572.88 968.135" stroke="#DFECF5" stroke-width="16" stroke-miterlimit="10"/>
<path d="M1072.56 808.564L1110 828.985C1110 828.985 1111.7 876.634 1140.63 881.739C1169.56 886.844 1210.4 878.335 1218.91 881.739C1227.42 885.143 1247.84 905.564 1247.84 905.564" stroke="#DFECF5" stroke-width="12" stroke-miterlimit="10"/>
<path d="M1278.08 871.56L1369.98 897.086C1369.98 897.086 1378.3 921.079 1361.47 919.209C1330.84 915.805 1324.45 875.329 1356.36 869.858C1415.92 859.647 1431.24 975.367 1461.87 961.753" stroke="#DFECF5" stroke-width="7" stroke-miterlimit="10"/>
<path d="M857.048 752.797L913.44 797.086C913.44 797.086 907.002 764.899 944.597 788.846C982.192 812.793 1039.1 782.665 1039.1 782.665" stroke="#DFECF5" stroke-width="12" stroke-miterlimit="10"/>
<path d="M969.522 883.407C969.522 883.407 1003.7 964.903 1072.05 904.438C1140.4 843.973 1174.31 802.149 1175.76 828.319L1244.67 934.335L1280.01 930.801C1280.01 930.801 1318.88 906.064 1331.25 916.666C1343.61 927.268 1333.01 914.899 1343.61 927.268C1354.22 939.637 1364.82 950.238 1364.82 950.238L1394.86 957.306L1408.99 952.005L1492.04 1010.31" stroke="#DFECF5" stroke-width="5" stroke-miterlimit="10"/>
<path d="M1192.98 928.099L1298.14 991.192L1324.43 978.048L1345.46 991.192" stroke="#DFECF5" stroke-width="9" stroke-miterlimit="10"/>
<path d="M1553.53 945.207C1579.84 952.383 1615.72 964.342 1615.72 964.342L1644.43 952.382C1685.09 973.909 1615.72 1007.4 1706.61 990.652" stroke="#DFECF5" stroke-width="8" stroke-miterlimit="10"/>
<path d="M1280.64 895.305L1302.76 953.609" stroke="#DFECF5" stroke-width="39" stroke-miterlimit="10"/>
<path d="M965.64 843.901L1011.73 845.256C1011.73 845.256 995.733 786.425 1032.6 798.082C1069.48 809.739 1133.46 780.73 1133.46 780.73" stroke="#DFECF5" stroke-width="39" stroke-miterlimit="10"/>
<path d="M906.389 687.979L909.852 658.542L951.411 660.273L956.606 675.858" stroke="#DFECF5" stroke-width="17" stroke-miterlimit="10"/>
<path d="M912.77 692.77C911.832 702.048 906.819 722.872 943.726 738.237C980.633 753.602 1073.41 762.98 1076.35 772.326C1079.28 781.672 1054.77 809.898 1054.77 809.898" stroke="#DFECF5" stroke-width="11" stroke-miterlimit="10"/>
</svg>
