<svg width="1920" height="1080" viewBox="0 0 1920 1080" fill="none" xmlns="http://www.w3.org/2000/svg">
<path d="M80.256 995.797V225.406H243.631C307.1 225.406 355.256 242.718 388.084 277.344C420.896 311.969 437.318 361.032 437.318 424.5V784.812C437.318 856.937 419.818 910.14 384.834 944.406C349.85 978.672 299.537 995.797 233.896 995.797H80.256ZM190.615 329.281V891.922H241.474C272.49 891.922 294.49 884.172 307.474 868.672C320.443 853.172 326.943 828.813 326.943 795.625V424.5C326.943 394.219 320.802 370.766 308.552 354.172C296.286 337.578 273.927 329.281 241.474 329.281H190.615Z" fill="#3300FF"/>
<path d="M540.143 407.188C540.143 376.172 545.549 348.766 556.377 324.954C567.189 301.157 581.627 281.329 599.658 265.454C616.97 250.298 636.627 238.766 658.627 230.829C680.627 222.892 702.799 218.923 725.174 218.923C747.533 218.923 769.721 222.892 791.721 230.829C813.721 238.766 833.737 250.298 851.768 265.454C869.08 281.329 883.143 301.157 893.956 324.954C904.768 348.766 910.19 376.173 910.19 407.188V814.016C910.19 846.485 904.768 874.25 893.956 897.328C883.144 920.422 869.081 939.531 851.768 954.687C833.737 970.562 813.721 982.453 791.721 990.39C769.721 998.312 747.533 1002.28 725.174 1002.28C702.799 1002.28 680.627 998.312 658.627 990.39C636.627 982.452 616.971 970.562 599.658 954.687C581.627 939.531 567.189 920.421 556.377 897.328C545.549 874.25 540.143 846.484 540.143 814.016V407.188ZM650.518 814.016C650.518 840.719 657.909 860.375 672.69 873C687.471 885.625 704.971 891.922 725.174 891.922C745.362 891.922 762.862 885.625 777.643 873C792.424 860.375 799.831 840.719 799.831 814.016V407.188C799.831 380.5 792.425 360.844 777.643 348.219C762.861 335.594 745.362 329.281 725.174 329.281C704.971 329.281 687.471 335.593 672.69 348.219C657.909 360.845 650.518 380.5 650.518 407.188V814.016Z" fill="#3300FF"/>
<path d="M1006.53 407.188C1006.53 376.172 1011.94 348.766 1022.76 324.954C1033.58 301.157 1048.01 281.329 1066.04 265.454C1083.36 250.298 1103.01 238.766 1125.01 230.829C1147.01 222.892 1169.19 218.923 1191.56 218.923C1213.92 218.923 1236.11 222.892 1258.11 230.829C1280.11 238.766 1300.12 250.298 1318.15 265.454C1335.47 281.329 1349.53 301.157 1360.34 324.954C1371.15 348.766 1376.58 376.173 1376.58 407.188V446.141H1266.22V407.188C1266.22 380.5 1258.81 360.844 1244.03 348.219C1229.25 335.594 1211.75 329.281 1191.56 329.281C1171.36 329.281 1153.86 335.593 1139.08 348.219C1124.3 360.845 1116.9 380.5 1116.9 407.188V814.016C1116.9 840.719 1124.3 860.375 1139.08 873C1153.86 885.625 1171.36 891.922 1191.56 891.922C1211.75 891.922 1229.25 885.625 1244.03 873C1258.81 860.375 1266.22 840.719 1266.22 814.016V669.031H1178.58V571.656H1376.58V814.015C1376.58 846.484 1371.15 874.249 1360.34 897.327C1349.53 920.421 1335.47 939.53 1318.15 954.686C1300.12 970.561 1280.11 982.452 1258.11 990.389C1236.11 998.311 1213.92 1002.28 1191.56 1002.28C1169.19 1002.28 1147.01 998.311 1125.01 990.389C1103.01 982.451 1083.36 970.561 1066.04 954.686C1048.01 939.53 1033.58 920.42 1022.76 897.327C1011.94 874.249 1006.53 846.483 1006.53 814.015V407.188Z" fill="#3300FF"/>
<path d="M1836.48 225.406V822.672C1836.48 847.922 1831.96 871.188 1822.95 892.469C1813.93 913.75 1801.14 932.688 1784.54 949.266C1767.95 965.86 1748.82 978.844 1727.18 988.219C1705.54 997.594 1682.46 1002.28 1657.95 1002.28C1633.42 1002.28 1610.51 997.593 1589.23 988.219C1567.95 978.845 1549.03 965.86 1532.43 949.266C1515.84 932.688 1502.85 913.75 1493.48 892.469C1484.1 871.188 1479.42 847.922 1479.42 822.672V225.406H1589.78V811.859C1589.78 839.265 1596.26 859.468 1609.25 872.453C1622.23 885.438 1638.46 891.922 1657.95 891.922C1677.42 891.922 1693.65 885.438 1706.64 872.453C1719.61 859.469 1726.11 839.265 1726.11 811.859V225.406H1836.48Z" fill="#3300FF"/>
</svg>
